<svg width="42" height="40" viewBox="0 0 42 40" fill="none" xmlns="http://www.w3.org/2000/svg">
<path d="M29.2583 33.566L28.1383 24.599C27.9796 23.3289 27.3623 22.1605 26.4026 21.3136C25.4428 20.4667 24.2068 19.9995 22.9268 20H19.0698C17.7904 20.0004 16.5552 20.4679 15.5962 21.3147C14.6372 22.1616 14.0204 23.3295 13.8618 24.599L12.74 33.566C12.6785 34.0586 12.7224 34.5588 12.869 35.0331C13.0155 35.5075 13.2613 35.9452 13.59 36.3173C13.9187 36.6894 14.3228 36.9873 14.7755 37.1912C15.2282 37.3951 15.719 37.5004 16.2155 37.5H25.7845C26.2809 37.5001 26.7715 37.3947 27.224 37.1906C27.6765 36.9866 28.0803 36.6887 28.4089 36.3166C28.7374 35.9446 28.983 35.5069 29.1295 35.0327C29.2759 34.5585 29.3198 34.0585 29.2583 33.566V33.566Z" stroke="#0077B6" stroke-width="3.5" stroke-linecap="round" stroke-linejoin="round"/>
<path d="M21 13C23.8995 13 26.25 10.6495 26.25 7.75C26.25 4.85051 23.8995 2.5 21 2.5C18.1005 2.5 15.75 4.85051 15.75 7.75C15.75 10.6495 18.1005 13 21 13Z" stroke="#0077B6" stroke-width="3.5"/>
<path d="M7 18.25C8.933 18.25 10.5 16.683 10.5 14.75C10.5 12.817 8.933 11.25 7 11.25C5.067 11.25 3.5 12.817 3.5 14.75C3.5 16.683 5.067 18.25 7 18.25Z" stroke="#0077B6" stroke-width="3.5"/>
<path d="M35 18.25C36.933 18.25 38.5 16.683 38.5 14.75C38.5 12.817 36.933 11.25 35 11.25C33.067 11.25 31.5 12.817 31.5 14.75C31.5 16.683 33.067 18.25 35 18.25Z" stroke="#0077B6" stroke-width="3.5"/>
<path d="M35 23.5H35.5355C36.364 23.4999 37.1657 23.7937 37.798 24.3292C38.4302 24.8646 38.852 25.607 38.9883 26.4242L39.571 29.9242C39.6547 30.4257 39.628 30.9394 39.493 31.4295C39.358 31.9196 39.1179 32.3744 38.7893 32.7623C38.4606 33.1502 38.0515 33.4619 37.5902 33.6756C37.1289 33.8894 36.6267 34.0001 36.1183 34H29.75M7.00003 23.5H6.46453C5.63601 23.4999 4.83432 23.7937 4.20209 24.3292C3.56985 24.8646 3.14807 25.607 3.01178 26.4242L2.42903 29.9242C2.3454 30.4257 2.37202 30.9394 2.50702 31.4295C2.64203 31.9196 2.88219 32.3744 3.2108 32.7623C3.53941 33.1502 3.94858 33.4619 4.40984 33.6756C4.87111 33.8894 5.3734 34.0001 5.88178 34H12.25L7.00003 23.5Z" stroke="#0077B6" stroke-width="3.5" stroke-linecap="round" stroke-linejoin="round"/>
</svg>
