<svg width="42" height="42" viewBox="0 0 42 42" fill="none" xmlns="http://www.w3.org/2000/svg">
<path d="M41.6174 39.7584L28.9067 26.9233C31.2758 24.0756 32.7036 20.4119 32.7036 16.4114C32.7036 7.34772 25.3826 0 16.3518 0C7.32103 0 0 7.34772 0 16.4114C0 25.4751 7.32103 32.8229 16.3518 32.8229C20.4548 32.8229 24.2026 31.3025 27.074 28.7962L39.767 41.6154C40.2778 42.1282 41.1065 42.1282 41.6174 41.6154C42.1275 41.1028 42.1276 40.2717 41.6174 39.7584ZM16.3518 30.2187C8.75411 30.2187 2.59471 24.0368 2.59471 16.4114C2.59471 8.78602 8.75411 2.60417 16.3518 2.60417C23.9495 2.60417 30.1089 8.78602 30.1089 16.4114C30.1089 24.0368 23.9495 30.2187 16.3518 30.2187Z" fill="#0077B6"/>
</svg>
