<svg width="42" height="42" viewBox="0 0 42 42" fill="none" xmlns="http://www.w3.org/2000/svg">
<path d="M24.5 19.25V28M7 10.5H35L32.235 35.385C32.1402 36.2414 31.7329 37.0328 31.0909 37.6075C30.449 38.1823 29.6176 38.5001 28.756 38.5H13.244C12.3824 38.5001 11.551 38.1823 10.9091 37.6075C10.2671 37.0328 9.85978 36.2414 9.765 35.385L7 10.5ZM12.8537 5.50725C13.1368 4.90694 13.5847 4.39949 14.1453 4.04409C14.7058 3.68869 15.3558 3.49999 16.0195 3.5H25.9805C26.6445 3.49966 27.2949 3.68821 27.8558 4.04363C28.4166 4.39905 28.8648 4.90667 29.148 5.50725L31.5 10.5H10.5L12.8537 5.50725V5.50725ZM3.5 10.5H38.5H3.5ZM17.5 19.25V28V19.25Z" stroke="#48CAE4" stroke-width="3.5" stroke-linecap="round" stroke-linejoin="round"/>
</svg>
