<svg width="42" height="38" viewBox="0 0 42 38" fill="none" xmlns="http://www.w3.org/2000/svg">
<path d="M40.2275 8.29378C39.5992 6.83896 38.6933 5.52061 37.5603 4.41253C36.4266 3.30115 35.0899 2.41796 33.6228 1.81097C32.1016 1.17906 30.4701 0.855617 28.8229 0.859408C26.5119 0.859408 24.2572 1.49222 22.2979 2.68753C21.8291 2.97347 21.3838 3.28753 20.9619 3.62972C20.54 3.28753 20.0947 2.97347 19.626 2.68753C17.6666 1.49222 15.4119 0.859408 13.101 0.859408C11.4369 0.859408 9.82441 1.17816 8.30098 1.81097C6.8291 2.42035 5.50254 3.29691 4.36348 4.41253C3.22909 5.51936 2.3229 6.83802 1.69629 8.29378C1.04473 9.80785 0.711914 11.4157 0.711914 13.0703C0.711914 14.6313 1.03066 16.2578 1.66348 17.9125C2.19316 19.2953 2.95254 20.7297 3.92285 22.1782C5.46035 24.4703 7.57441 26.861 10.1994 29.2844C14.5494 33.3016 18.8572 36.0766 19.04 36.1891L20.151 36.9016C20.6432 37.2157 21.276 37.2157 21.7682 36.9016L22.8791 36.1891C23.0619 36.0719 27.365 33.3016 31.7197 29.2844C34.3447 26.861 36.4588 24.4703 37.9963 22.1782C38.9666 20.7297 39.7307 19.2953 40.2557 17.9125C40.8885 16.2578 41.2072 14.6313 41.2072 13.0703C41.2119 11.4157 40.8791 9.80785 40.2275 8.29378ZM20.9619 33.1938C20.9619 33.1938 4.27441 22.5016 4.27441 13.0703C4.27441 8.29378 8.22598 4.42191 13.101 4.42191C16.5275 4.42191 19.4994 6.33441 20.9619 9.12816C22.4244 6.33441 25.3963 4.42191 28.8229 4.42191C33.6979 4.42191 37.6494 8.29378 37.6494 13.0703C37.6494 22.5016 20.9619 33.1938 20.9619 33.1938Z" fill="#48CAE4"/>
</svg>
