<svg width="36" height="32" viewBox="0 0 36 32" fill="none" xmlns="http://www.w3.org/2000/svg">
<path d="M34.8574 6.63206C34.3076 5.35909 33.5149 4.20553 32.5236 3.23597C31.5316 2.26351 30.362 1.49071 29.0783 0.959599C27.7473 0.40668 26.3196 0.123665 24.8783 0.126982C22.8563 0.126982 20.8834 0.680693 19.1689 1.72659C18.7588 1.97679 18.3691 2.25159 18 2.55101C17.6309 2.25159 17.2412 1.97679 16.8311 1.72659C15.1166 0.680693 13.1437 0.126982 11.1217 0.126982C9.66562 0.126982 8.25469 0.405888 6.92168 0.959599C5.63379 1.4928 4.47305 2.25979 3.47637 3.23597C2.48378 4.20444 1.69087 5.35827 1.14258 6.63206C0.572461 7.95686 0.28125 9.3637 0.28125 10.8116C0.28125 12.1774 0.560156 13.6006 1.11387 15.0485C1.57734 16.2584 2.2418 17.5135 3.09082 18.7809C4.43613 20.7866 6.28594 22.8784 8.58281 24.9989C12.3891 28.5139 16.1584 30.942 16.3184 31.0405L17.2904 31.6639C17.7211 31.9387 18.2748 31.9387 18.7055 31.6639L19.6775 31.0405C19.8375 30.9379 23.6027 28.5139 27.4131 24.9989C29.71 22.8784 31.5598 20.7866 32.9051 18.7809C33.7541 17.5135 34.4227 16.2584 34.882 15.0485C35.4357 13.6006 35.7146 12.1774 35.7146 10.8116C35.7188 9.3637 35.4275 7.95686 34.8574 6.63206V6.63206Z" fill="#48CAE4"/>
</svg>
