<svg width="42" height="42" viewBox="0 0 42 42" fill="none" xmlns="http://www.w3.org/2000/svg">
<path d="M40.3523 34.2754C39.2987 31.9177 37.7698 29.7762 35.8507 27.9701C33.9374 26.1588 31.671 24.7146 29.1765 23.7173C29.1542 23.7068 29.1319 23.7015 29.1095 23.691C32.589 21.3166 34.851 17.449 34.851 13.0854C34.851 5.85678 28.6515 0 21 0C13.3485 0 7.14903 5.85678 7.14903 13.0854C7.14903 17.449 9.41098 21.3166 12.8905 23.6962C12.8681 23.7068 12.8458 23.7121 12.8235 23.7226C10.3213 24.7198 8.07615 26.1497 6.1493 27.9754C4.232 29.7829 2.70334 31.9241 1.64774 34.2807C0.610712 36.5878 0.0514214 39.0613 0.00013966 41.5673C-0.00135102 41.6236 0.00910438 41.6797 0.0308901 41.7321C0.0526758 41.7845 0.0853509 41.8323 0.12699 41.8727C0.168629 41.913 0.21839 41.945 0.27334 41.9669C0.32829 41.9888 0.387318 42 0.446945 42H3.79799C4.04373 42 4.23921 41.8153 4.24479 41.5884C4.35649 37.5151 6.08786 33.7003 9.14848 30.8088C12.3152 27.8171 16.5208 26.1709 21 26.1709C25.4792 26.1709 29.6848 27.8171 32.8515 30.8088C35.9121 33.7003 37.6435 37.5151 37.7552 41.5884C37.7608 41.8206 37.9563 42 38.202 42H41.5531C41.6127 42 41.6717 41.9888 41.7267 41.9669C41.7816 41.945 41.8314 41.913 41.873 41.8727C41.9146 41.8323 41.9473 41.7845 41.9691 41.7321C41.9909 41.6797 42.0014 41.6236 41.9999 41.5673C41.944 39.0452 41.3911 36.5917 40.3523 34.2754ZM21 22.1608C18.4365 22.1608 16.0237 21.2163 14.2086 19.5015C12.3934 17.7867 11.3937 15.5073 11.3937 13.0854C11.3937 10.6636 12.3934 8.38417 14.2086 6.66935C16.0237 4.95452 18.4365 4.01005 21 4.01005C23.5635 4.01005 25.9763 4.95452 27.7914 6.66935C29.6066 8.38417 30.6063 10.6636 30.6063 13.0854C30.6063 15.5073 29.6066 17.7867 27.7914 19.5015C25.9763 21.2163 23.5635 22.1608 21 22.1608Z" fill="#0077B6"/>
</svg>
