<svg width="36" height="34" viewBox="0 0 36 34" fill="none" xmlns="http://www.w3.org/2000/svg">
<path d="M18 0.375C18.3249 0.375174 18.6434 0.465795 18.9197 0.636717C19.196 0.807638 19.4193 1.05211 19.5645 1.34275L24.0795 10.3693L34.002 11.8112C34.3252 11.8582 34.6289 11.9946 34.8786 12.2052C35.1283 12.4157 35.3141 12.6919 35.415 13.0026C35.5158 13.3132 35.5278 13.6459 35.4494 13.963C35.371 14.2801 35.2055 14.5689 34.9715 14.7968L27.7493 21.8388L29.3733 31.7682C29.4254 32.0897 29.3869 32.4193 29.262 32.72C29.137 33.0208 28.9307 33.2807 28.6661 33.4705C28.4015 33.6603 28.0892 33.7726 27.7643 33.7946C27.4394 33.8167 27.1148 33.7476 26.827 33.5952L18 28.9122L9.17302 33.5952C8.88522 33.7476 8.56062 33.8167 8.23573 33.7946C7.91083 33.7726 7.59852 33.6603 7.33394 33.4705C7.06936 33.2807 6.863 33.0208 6.73807 32.72C6.61314 32.4193 6.57459 32.0897 6.62677 31.7682L8.25077 21.8388L1.02852 14.7968C0.794539 14.5689 0.629001 14.2801 0.550633 13.963C0.472265 13.6459 0.484195 13.3132 0.585073 13.0026C0.685951 12.6919 0.871751 12.4157 1.12145 12.2052C1.37116 11.9946 1.67479 11.8582 1.99802 11.8112L11.9205 10.3693L16.4355 1.34275C16.5808 1.05211 16.804 0.807638 17.0803 0.636717C17.3567 0.465795 17.6751 0.375174 18 0.375ZM18 6.038L14.6435 12.751C14.5176 13.0035 14.3324 13.2217 14.1039 13.3872C13.8753 13.5526 13.6102 13.6604 13.331 13.7012L6.00902 14.7652L11.3465 19.968C11.5482 20.1645 11.6995 20.4068 11.7876 20.6743C11.8756 20.9418 11.8978 21.2266 11.8523 21.5045L10.65 28.8492L17.1793 25.3843C17.432 25.25 17.7138 25.1798 18 25.1798C18.2862 25.1798 18.568 25.25 18.8208 25.3843L25.35 28.8492L24.1478 21.5045C24.1025 21.2269 24.1249 20.9424 24.2129 20.6753C24.3009 20.4081 24.4521 20.1661 24.6535 19.9697L29.991 14.7652L22.6708 13.7012C22.3916 13.6604 22.1264 13.5526 21.8979 13.3872C21.6694 13.2217 21.4842 13.0035 21.3583 12.751L18 6.038V6.038Z" fill="#48CAE4"/>
</svg>
